<?xml version="1.0" standalone="no"?>
<!DOCTYPE svg PUBLIC "-//W3C//DTD SVG 20010904//EN"
 "http://www.w3.org/TR/2001/REC-SVG-20010904/DTD/svg10.dtd">
<svg version="1.0" xmlns="http://www.w3.org/2000/svg"
 width="500.000000pt" height="500.000000pt" viewBox="0 0 500.000000 500.000000"
 preserveAspectRatio="xMidYMid meet">

<g transform="translate(0.000000,500.000000) scale(0.100000,-0.100000)"
fill="#000000" stroke="none">
<path d="M2015 3850 c-11 -19 6 -30 46 -30 52 0 104 -22 121 -52 20 -34 19
-1756 -1 -1843 -25 -112 -74 -176 -145 -189 -22 -4 -36 -13 -36 -21 0 -12 17
-15 80 -15 182 0 289 51 348 165 56 110 55 89 61 1026 5 729 8 869 20 883 24
29 67 46 116 46 38 0 45 3 45 20 0 20 -7 20 -324 20 -206 0 -327 -4 -331 -10z"/>
<path d="M2820 3670 c0 -63 -72 -89 -153 -55 -48 20 -47 20 -47 -20 0 -27 7
-39 30 -56 80 -60 155 -227 169 -379 4 -48 10 -65 21 -65 13 0 15 41 18 303 2
297 2 302 -18 302 -16 0 -20 -7 -20 -30z"/>
<path d="M1981 3651 c-159 -84 -249 -256 -221 -425 16 -102 63 -180 177 -293
57 -57 108 -103 114 -103 7 0 8 77 4 243 -7 340 -7 409 0 515 8 107 8 107 -74
63z"/>
<path d="M2620 2580 l0 -189 37 -71 c30 -57 38 -85 41 -140 5 -83 -17 -157
-62 -208 -26 -29 -81 -150 -73 -159 8 -7 130 33 179 59 116 62 188 168 210
310 24 160 -20 298 -134 423 -54 59 -178 165 -192 165 -3 0 -6 -85 -6 -190z"/>
<path d="M1750 2215 c0 -311 3 -385 13 -385 7 0 21 16 30 35 27 56 88 65 214
29 18 -5 25 -1 33 22 9 24 8 30 -7 41 -139 98 -228 301 -249 566 -4 57 -9 77
-20 77 -12 0 -14 -60 -14 -385z"/>
<path d="M1702 1603 c-7 -3 -19 -18 -28 -35 -29 -56 6 -118 67 -118 29 0 78
34 67 46 -5 4 -16 0 -26 -9 -41 -37 -102 -11 -102 42 0 53 62 80 102 44 10 -9
21 -13 26 -9 4 4 -4 16 -17 27 -22 18 -61 23 -89 12z"/>
<path d="M1944 1574 c-9 -21 -24 -58 -34 -81 -11 -25 -14 -43 -9 -43 6 0 13 9
16 20 4 16 14 20 43 20 30 0 40 -5 45 -20 5 -16 25 -29 25 -16 0 6 -60 150
-65 154 -3 3 -12 -12 -21 -34z m46 -60 c0 -2 -11 -4 -25 -4 -28 0 -30 8 -13
45 l12 26 13 -32 c7 -17 13 -33 13 -35z"/>
<path d="M2120 1530 c0 -91 17 -109 22 -23 l3 57 38 -57 c20 -31 39 -57 42
-57 3 0 5 36 5 80 0 47 -4 80 -10 80 -6 0 -10 -26 -10 -57 l0 -58 -41 58 c-22
31 -42 57 -45 57 -2 0 -4 -36 -4 -80z"/>
<path d="M2355 1543 c-15 -37 -29 -74 -32 -80 -3 -7 0 -13 5 -13 6 0 14 9 17
20 5 15 15 20 45 20 29 0 39 -4 43 -20 3 -11 10 -20 15 -20 10 0 -42 137 -57
153 -5 5 -21 -22 -36 -60z m55 -20 c0 -7 -11 -13 -25 -13 -29 0 -29 0 -13 35
11 25 13 26 25 9 7 -10 13 -24 13 -31z"/>
<path d="M2540 1530 c0 -47 4 -80 10 -80 6 0 10 14 10 30 0 39 12 38 44 -2 14
-18 28 -29 32 -25 4 4 -2 17 -14 30 -27 29 -27 33 -2 40 15 4 20 14 20 36 0
35 -22 51 -69 51 l-31 0 0 -80z m84 44 c9 -22 -11 -44 -40 -44 -20 0 -24 5
-24 30 0 26 3 30 29 30 17 0 31 -6 35 -16z"/>
<path d="M2743 1530 c0 -47 2 -66 4 -42 2 23 2 61 0 85 -2 23 -4 4 -4 -43z"/>
<path d="M2892 1603 c-21 -8 -44 -63 -38 -89 23 -91 156 -78 156 15 0 61 -59
98 -118 74z m98 -47 c22 -38 -2 -80 -49 -84 -81 -8 -99 95 -21 120 24 8 54 -7
70 -36z"/>
</g>
</svg>
